<svg width="43" height="43" viewBox="0 0 43 43" fill="none" xmlns="http://www.w3.org/2000/svg">

<path fill-rule="evenodd" clip-rule="evenodd" d="M0.0541448 26.9849C0.600444 31.5459 6.09707 34.985 12.8399 34.985C18.9019 34.985 24.0514 32.1874 25.3643 28.1815L25.3655 28.1795C25.5709 27.5611 25.6769 26.9145 25.6798 26.263C25.6767 26.0667 25.663 25.8709 25.6388 25.6763L25.6319 25.6141C25.3931 23.8877 24.5379 22.3061 23.2236 21.1614C24.72 21.82 26.3324 22.1736 27.967 22.2024C29.3241 22.2278 30.6635 21.8915 31.8475 21.2283L31.8481 21.2275C32.3026 20.9693 32.7216 20.653 33.094 20.2862C33.3742 20.0009 33.6244 19.688 33.8415 19.3523L33.8421 19.3515C36.3037 15.6474 34.7286 9.42234 30.1779 4.87184C25.9639 0.657891 20.1703 -1.05624 16.4007 0.796675C15.7945 1.08992 15.2408 1.4809 14.7618 1.95396C14.5871 2.13293 14.4241 2.32272 14.2733 2.52249C11.4692 6.13343 12.9653 12.6554 17.6799 17.37C18.1459 17.8346 18.636 18.2743 19.1478 18.6875C17.1336 17.9212 14.9952 17.5325 12.8399 17.541C6.81977 17.541 1.54087 20.4327 0.287825 24.4167C0.0986011 25.0137 0.00142415 25.6364 0 26.263C0.00341899 26.5044 0.0216576 26.7455 0.0541448 26.9849ZM12.8399 33.8177C7.1626 33.8177 2.31657 31.1222 1.35193 27.5608L1.42118 27.5679C1.62978 27.5916 1.82841 27.6175 2.01393 27.6472C2.03045 27.6498 2.04623 27.6526 2.06211 27.6554L2.09287 27.6608C2.26613 27.6896 2.43142 27.7207 2.59072 27.7537L2.6222 27.76C2.63867 27.7632 2.65523 27.7665 2.67137 27.77C2.84178 27.8065 3.00622 27.8446 3.1678 27.8843L3.2331 27.9005L3.2721 27.9102C3.4277 27.9492 3.58158 27.9886 3.73689 28.029C5.24157 28.4559 6.80096 28.6585 8.36463 28.63C9.92658 28.6588 11.4843 28.4556 12.9867 28.0276C14.3927 27.6238 15.8515 27.4334 17.314 27.4628C18.7771 27.4334 20.2365 27.6238 21.6431 28.0273C21.7893 28.0652 21.9375 28.1034 22.0879 28.1413L22.1228 28.1501L22.1925 28.1675C22.3521 28.2071 22.516 28.2459 22.6864 28.2832C22.7072 28.2878 22.7294 28.2921 22.7505 28.2966C22.9081 28.3302 23.0725 28.3624 23.2441 28.3929L23.2786 28.3992C23.297 28.4026 23.3154 28.406 23.3344 28.4092C23.5205 28.4411 23.7172 28.4699 23.9249 28.4961L23.9336 28.4974L23.9478 28.4996C23.9574 28.5012 23.967 28.5028 23.9776 28.5041C22.4692 31.6217 17.9484 33.8177 12.8399 33.8177ZM29.3526 5.69741C33.1761 9.52123 34.7768 14.7531 33.2465 18.0329L33.2214 18.0038C33.2141 17.9953 33.2068 17.9867 33.1997 17.9782C33.045 17.7961 32.9017 17.6203 32.774 17.4533C32.7681 17.4456 32.7626 17.4381 32.7572 17.4307C32.7522 17.4238 32.7471 17.4169 32.7418 17.4099C32.6201 17.2492 32.509 17.0942 32.4049 16.9432L32.3816 16.9094L32.3539 16.8693C32.2479 16.7129 32.1488 16.5599 32.0533 16.4083L31.9989 16.3213C31.9068 16.1737 31.8168 16.0267 31.7264 15.8782C30.9447 14.5246 29.967 13.2943 28.8254 12.2271C27.7248 11.1194 26.4655 10.1812 25.0893 9.44371C23.7995 8.75493 22.6206 7.87691 21.5915 6.83846C20.522 5.84161 19.6078 4.69002 18.8794 3.42245C18.8053 3.30019 18.7298 3.17651 18.6528 3.05198L18.5939 2.95708C18.5112 2.82428 18.426 2.68977 18.3348 2.55156C18.3287 2.54209 18.3221 2.5324 18.3156 2.52276L18.3035 2.50482C18.2211 2.38057 18.1333 2.25319 18.0401 2.12239L18.0116 2.08221L18.0115 2.0821C17.9997 2.06536 17.9878 2.04855 17.9755 2.03148C17.8714 1.88785 17.7603 1.73995 17.6395 1.58663L17.6314 1.57584L17.6314 1.57578L17.6314 1.57572C17.6266 1.56929 17.622 1.56303 17.6167 1.55642C20.9517 0.43447 25.7425 2.08705 29.3526 5.69741ZM15.5871 2.77926C15.8675 2.5014 16.1812 2.25917 16.5209 2.05855C16.5266 2.06514 16.5316 2.07155 16.5367 2.07798L16.5489 2.09303C16.6777 2.24977 16.7948 2.39967 16.9039 2.545L16.93 2.57939C16.9395 2.59189 16.949 2.60437 16.9581 2.61653C17.0672 2.76472 17.1675 2.90806 17.2624 3.04827L17.2767 3.06941C17.2907 3.09018 17.3047 3.11083 17.3183 3.13149C17.4109 3.27055 17.4995 3.40763 17.5842 3.54328C17.5996 3.56779 17.6147 3.59229 17.6298 3.6168C17.7147 3.75387 17.7979 3.89009 17.8817 4.02831C18.662 5.38052 19.6383 6.60991 20.7788 7.67629C21.8793 8.78371 23.1387 9.72185 24.5148 10.4597C25.8046 11.1482 26.9836 12.0262 28.0126 13.0649C29.0835 14.0629 29.9992 15.2156 30.7293 16.4846L30.7568 16.5297C30.8078 16.6134 30.8592 16.6976 30.9111 16.7824L30.9494 16.844L30.9747 16.8844C31.0177 16.9537 31.0607 17.0229 31.1052 17.0931C31.1211 17.1182 31.1376 17.1435 31.1541 17.1689L31.1544 17.1694L31.1858 17.2179C31.2277 17.2831 31.2702 17.3484 31.3146 17.4151C31.3443 17.4595 31.3753 17.5051 31.4064 17.5504C31.4506 17.6154 31.4962 17.6812 31.5432 17.7479C31.5774 17.7961 31.6127 17.8451 31.6483 17.8944C31.6968 17.9608 31.7467 18.0283 31.7985 18.0967C31.8376 18.1483 31.8775 18.2008 31.9185 18.2535C31.9724 18.3227 32.0294 18.3937 32.0872 18.4652C32.1314 18.5199 32.1755 18.5746 32.2226 18.6308C32.2836 18.7043 32.3491 18.7801 32.4149 18.8562L32.459 18.9071C32.4947 18.9485 32.5305 18.9899 32.5682 19.0323L32.5847 19.0513L32.5847 19.0514L32.5847 19.0514C32.5884 19.0557 32.592 19.0599 32.5957 19.0642C32.599 19.068 32.6024 19.0718 32.6059 19.0756C32.5016 19.2107 32.389 19.3395 32.2687 19.4609C32.0801 19.6479 31.8749 19.8177 31.6557 19.9685L31.6355 19.9462C31.6127 19.9203 31.5914 19.8952 31.5702 19.8702L31.55 19.8465L31.5292 19.8223L31.5161 19.8071C31.453 19.7338 31.3904 19.6612 31.3323 19.5909C31.2938 19.5441 31.2579 19.4991 31.2212 19.4535C31.1673 19.3863 31.114 19.3196 31.0639 19.2546C31.0279 19.2081 30.9937 19.1628 30.9595 19.1172C30.9131 19.0554 30.8678 18.9941 30.8242 18.9337C30.792 18.8895 30.7606 18.8457 30.7301 18.8021C30.6874 18.7414 30.6458 18.6812 30.6056 18.6217L30.5865 18.5935C30.5652 18.5622 30.5439 18.5308 30.5233 18.4997C30.4825 18.4379 30.4426 18.3766 30.4033 18.3156C30.3793 18.2786 30.3551 18.2412 30.3317 18.2042C30.2896 18.1378 30.2485 18.0717 30.2078 18.0058L30.1988 17.9914C30.1823 17.9651 30.1658 17.9386 30.1496 17.9121C30.0918 17.818 30.0342 17.724 29.977 17.6297C29.1944 16.276 28.2164 15.0455 27.0745 13.978C25.9739 12.8703 24.7146 11.9321 23.3384 11.1946C22.0486 10.5061 20.8697 9.62781 19.8406 8.58935C18.7703 7.59165 17.8552 6.43949 17.1257 5.17135C17.0356 5.02344 16.9436 4.87355 16.8495 4.72194L16.8244 4.68158L16.7897 4.6259C16.6936 4.47316 16.5916 4.31699 16.4836 4.15683C16.4611 4.1232 16.438 4.08958 16.4146 4.05566C16.3021 3.8918 16.181 3.7231 16.0482 3.54727C16.0366 3.53215 16.0246 3.51673 16.0125 3.50128L15.9795 3.45864C15.8356 3.27141 15.6814 3.07877 15.5064 2.87415L15.5019 2.86845C15.5301 2.83768 15.5583 2.80804 15.5871 2.77926ZM18.5052 16.5448C14.4603 12.4995 12.9322 7.09693 14.7926 3.84108L14.8131 3.86587L14.835 3.89237C14.9604 4.04683 15.0775 4.19616 15.1844 4.34007C15.1961 4.35567 15.2071 4.37099 15.218 4.3863L15.2425 4.42015C15.3389 4.55209 15.4295 4.6809 15.5144 4.80658C15.5217 4.81754 15.5292 4.82851 15.5367 4.83944L15.547 4.85442L15.5606 4.87469C15.6543 5.01518 15.7427 5.15311 15.8284 5.29018L15.8608 5.342L15.884 5.37938C15.9661 5.51189 16.047 5.64412 16.1282 5.77778C16.9096 7.13027 17.8868 8.36023 19.0279 9.42719C20.1285 10.5346 21.3878 11.4727 22.7639 12.2103C24.0537 12.8991 25.2327 13.7771 26.2617 14.8155C27.3329 15.8141 28.2491 16.9671 28.9798 18.2361C29.0696 18.3837 29.1613 18.5327 29.2551 18.6838L29.2641 18.6983C29.283 18.7287 29.3018 18.759 29.3212 18.7895C29.419 18.9445 29.5218 19.103 29.6321 19.2657C29.6544 19.2985 29.678 19.3321 29.7008 19.3654C29.8151 19.531 29.9362 19.7009 30.0716 19.879L30.0889 19.9029C30.2263 20.0827 30.3819 20.2731 30.5478 20.4694C30.5583 20.4818 30.5674 20.4934 30.5765 20.5051C30.586 20.5172 30.5956 20.5294 30.6067 20.5424C27.2939 21.9134 22.2504 20.2891 18.5052 16.5448ZM12.8399 18.7083C18.5676 18.7083 23.4233 21.4332 24.3433 25.0316L24.3177 25.0289L24.2919 25.0263L24.2749 25.0245C24.0628 25.0009 23.8611 24.9746 23.673 24.9447C23.6601 24.9427 23.6477 24.9405 23.6353 24.9383L23.6351 24.9383L23.62 24.9356L23.5997 24.9322C23.4268 24.9037 23.2618 24.8726 23.103 24.8398L23.0648 24.8322L23.0392 24.8271C23.0285 24.8249 23.0179 24.8228 23.0076 24.8205C22.8403 24.7848 22.6787 24.7472 22.52 24.7085L22.5028 24.7042C22.4668 24.6954 22.4308 24.6865 22.3952 24.6774C22.2438 24.6395 22.0936 24.6013 21.9423 24.562C20.4377 24.1351 18.878 23.9325 17.314 23.961C15.7521 23.9322 14.1944 24.1351 12.692 24.5634C11.2859 24.9669 9.82712 25.1573 8.36463 25.1282C6.90127 25.1573 5.44191 24.9669 4.03498 24.5637C3.8905 24.5261 3.7443 24.4885 3.59612 24.4511L3.51525 24.4309L3.47415 24.4206C3.31627 24.3816 3.1544 24.3434 2.9857 24.3067C2.96846 24.3028 2.95061 24.2991 2.93279 24.2955L2.90419 24.2896C2.74831 24.2565 2.58559 24.2249 2.41603 24.1949C2.40127 24.1924 2.38682 24.1897 2.37234 24.187C2.35606 24.184 2.33973 24.181 2.32284 24.1781C2.13561 24.1465 1.93698 24.118 1.72838 24.0918C1.71799 24.0905 1.70844 24.0891 1.69886 24.0876L1.69884 24.0876C1.68897 24.0861 1.67909 24.0845 1.66825 24.0832C3.145 20.9303 7.68154 18.7083 12.8399 18.7083ZM1.28211 25.2149L1.30405 25.2174C1.52975 25.2405 1.73807 25.2685 1.9367 25.2987C1.95056 25.3009 1.96484 25.3029 1.97908 25.305C1.99383 25.3071 2.00856 25.3092 2.02276 25.3115C2.21427 25.3423 2.39437 25.3759 2.56849 25.4118L2.57632 25.4134C2.6088 25.42 2.64145 25.4266 2.67336 25.4337C2.8415 25.4696 3.00422 25.507 3.16352 25.546L3.27295 25.5734C3.4294 25.6127 3.58472 25.6526 3.74088 25.6934C5.24385 26.1211 6.8021 26.324 8.36463 26.2955C9.92658 26.3243 11.4843 26.1211 12.9867 25.6931C14.3927 25.2893 15.8515 25.0989 17.314 25.1282C18.7791 25.0992 20.2402 25.2893 21.6491 25.6919C21.7525 25.7187 21.8565 25.7455 21.9614 25.7723C22.0013 25.7825 22.0421 25.7925 22.0823 25.8025C22.1541 25.8207 22.2262 25.8387 22.2997 25.8564C22.3424 25.8666 22.3866 25.8769 22.4302 25.8871C22.5029 25.9042 22.5764 25.921 22.6513 25.9376C22.6978 25.9478 22.7451 25.9578 22.7927 25.9678C22.8674 25.9837 22.9437 25.9991 23.0215 26.0142C23.0717 26.0239 23.1224 26.0336 23.1737 26.043C23.2541 26.0576 23.337 26.0718 23.4208 26.0855L23.4319 26.0873C23.4806 26.0952 23.5292 26.1032 23.5792 26.1108C23.6642 26.1239 23.7527 26.1358 23.8424 26.1478L23.8602 26.1502L23.8996 26.1554L23.8999 26.1555L23.9001 26.1555C23.9381 26.1606 23.9761 26.1658 24.0158 26.1704C24.1275 26.1838 24.2446 26.1958 24.3638 26.2074C24.3842 26.2093 24.404 26.2114 24.4239 26.2135C24.4459 26.2158 24.468 26.2182 24.4912 26.2203L24.5122 26.2226L24.5125 26.238L24.5125 26.263C24.5114 26.6375 24.4669 27.0105 24.38 27.3747L24.3564 27.3719C24.1346 27.3488 23.93 27.3211 23.7345 27.2912C23.72 27.2889 23.7051 27.2867 23.6903 27.2846C23.6743 27.2823 23.6584 27.28 23.6431 27.2775C23.4547 27.247 23.2772 27.2137 23.1059 27.1784C23.0688 27.171 23.0321 27.1633 22.9956 27.1556C22.8303 27.1199 22.6696 27.0829 22.5126 27.0444L22.4494 27.0285L22.3994 27.0159C22.245 26.9772 22.0919 26.9378 21.9375 26.8977C20.4345 26.4696 18.8766 26.2667 17.314 26.2955C15.7521 26.2667 14.1944 26.4696 12.692 26.8979C11.2859 27.3015 9.82712 27.4918 8.36463 27.4628C6.89985 27.4916 5.43877 27.3015 4.03014 26.8991L3.96244 26.8816C3.87905 26.86 3.79527 26.8383 3.71096 26.8167L3.67276 26.8072L3.67229 26.8071L3.61435 26.7925C3.53713 26.7731 3.45933 26.7537 3.37982 26.7344C3.35366 26.7281 3.32699 26.7219 3.30024 26.7157L3.24588 26.703C3.17578 26.6865 3.1051 26.6702 3.033 26.6543C2.99572 26.6459 2.95763 26.6379 2.91935 26.6298L2.8814 26.6218C2.81101 26.607 2.73919 26.5925 2.66624 26.5782C2.61152 26.5674 2.55624 26.5571 2.49981 26.5469C2.42629 26.5335 2.35048 26.5206 2.27383 26.5078L2.24028 26.5023L2.23973 26.5022L2.23959 26.5022L2.23947 26.5022C2.19158 26.4943 2.14339 26.4864 2.09372 26.479C2.01478 26.4668 1.93214 26.4557 1.84921 26.4448L1.80363 26.4387L1.80326 26.4386C1.75491 26.4321 1.7065 26.4255 1.65628 26.4195C1.5648 26.4086 1.46848 26.399 1.37216 26.3893L1.30436 26.3822C1.26502 26.378 1.22559 26.3738 1.18408 26.3702L1.16926 26.3687C1.16812 26.3334 1.16726 26.2981 1.16726 26.263C1.16783 25.9105 1.2063 25.5591 1.28211 25.2149ZM6.6884 30.1179C6.44845 29.9939 6.22046 29.8637 6.00445 29.7272C5.73173 29.5565 5.37238 29.6389 5.2011 29.911C5.02983 30.1832 5.11105 30.5428 5.38263 30.7149C5.62543 30.868 5.88163 31.0144 6.1515 31.1546C6.4379 31.3028 6.79013 31.1908 6.93832 30.9047C7.08651 30.6183 6.9748 30.2661 6.6884 30.1179ZM12.8399 31.4832C15.8518 31.4832 18.6255 30.6394 20.4496 29.1678C20.7004 28.9652 21.068 29.0045 21.2704 29.2556C21.4727 29.5063 21.4334 29.8737 21.1826 30.0763C19.1544 31.7123 16.1137 32.6505 12.8399 32.6505C11.1947 32.6627 9.55811 32.4157 7.99017 31.9181C7.68439 31.8178 7.51739 31.4889 7.61713 31.1829C7.71687 30.8768 8.04545 30.7092 8.35152 30.8084C9.8029 31.2678 11.3176 31.4955 12.8399 31.4832ZM16.6894 9.21289C16.625 8.98291 16.5702 8.75578 16.5255 8.53179C16.4622 8.21575 16.1547 8.01086 15.8387 8.07412C15.5227 8.13739 15.3178 8.44488 15.381 8.76091C15.4315 9.01255 15.493 9.26789 15.5654 9.5275C15.6523 9.83784 15.9744 10.0188 16.2847 9.93217C16.595 9.84525 16.7763 9.52323 16.6894 9.21289ZM27.5866 18.6735C27.9083 18.6932 28.1531 18.9702 28.1331 19.2919C28.1141 19.5994 27.8593 19.8391 27.5512 19.8397C27.5393 19.8397 27.527 19.8394 27.5147 19.8385C24.8023 19.6715 21.7428 18.1315 19.3308 15.7192C18.1419 14.5437 17.1527 13.182 16.4024 11.6879C16.2602 11.3992 16.3784 11.0498 16.6668 10.9071C16.9552 10.7643 17.3046 10.8817 17.4482 11.1698C18.1422 12.5502 19.0569 13.8081 20.1561 14.8939C22.3393 17.0774 25.1865 18.5256 27.5866 18.6735Z" fill="black"/>
</svg>
